<?xml version="1.0" standalone="no"?><!DOCTYPE svg PUBLIC "-//W3C//DTD SVG 1.1//EN" "http://www.w3.org/Graphics/SVG/1.1/DTD/svg11.dtd"><svg t="1732350434492" class="icon" viewBox="0 0 1024 1024" version="1.1" xmlns="http://www.w3.org/2000/svg" p-id="21129" xmlns:xlink="http://www.w3.org/1999/xlink" width="200" height="200"><path d="M704.609524 410.819048c-13.409524-90.209524-92.647619-160.914286-186.514286-160.914286-95.085714 0-173.104762 69.485714-186.514286 160.914286h-9.752381c-99.961905 0-181.638095 81.67619-181.638095 181.638095s81.67619 181.638095 181.638095 181.638095h384c99.961905 0 181.638095-81.67619 181.638096-181.638095-1.219048-99.961905-82.895238-181.638095-182.857143-181.638095zM441.295238 716.8l-71.923809-71.92381c-41.447619-41.447619-41.447619-109.714286 0-152.380952 41.447619-41.447619 109.714286-41.447619 152.380952 0l71.923809 71.92381-34.133333 34.133333-71.923809-71.92381c-23.161905-23.161905-60.952381-23.161905-84.114286 0-23.161905 23.161905-23.161905 60.952381 0 84.114286L475.428571 682.666667l-34.133333 34.133333z m231.619048-65.828571c-20.72381 20.72381-48.761905 31.695238-75.580953 31.695238-28.038095 0-54.857143-10.971429-75.580952-31.695238l-71.92381-71.92381 34.133334-34.133333 71.923809 71.923809c23.161905 23.161905 60.952381 23.161905 84.114286 0 23.161905-23.161905 23.161905-60.952381 0-84.114285l-71.92381-71.92381 34.133334-34.133333 71.923809 71.923809c40.228571 42.666667 40.228571 110.933333-1.219047 152.380953z" fill="#0078d7" p-id="21130"></path></svg>